                                                                        S      1
,,,9Hbeam_pipe,22HAutodesk Inventor 2025,7Hunknown,32,38,7,99,15,,1.,2, G      1
2HMM,1,0.08,15H20260309.084242,0.01,10000.,6HDaniel,,11,0,15H20260307.00G      2
0000;                                                                   G      3
     186       1                                                00000000D      1
     186             -87       1       0                               0D      2
     514       2                                                00010000D      3
     514                       1       1                               0D      4
     510       3                                                00010000D      5
     510             -87       1       1                               0D      6
     510       4                                                00010000D      7
     510             -87       1       1                               0D      8
     510       5                                                00010000D      9
     510             -87       1       1                               0D     10
     510       6                                                00010000D     11
     510             -87       1       1                               0D     12
     510       7                                                00010000D     13
     510             -87       1       1                               0D     14
     510       8                                                00010000D     15
     510             -87       1       1                               0D     16
     510       9                                                00010000D     17
     510             -87       1       1                               0D     18
     508      10                                                00010000D     19
     508                       1       1                               0D     20
     508      11                                                00010000D     21
     508                       1       1                               0D     22
     508      12                                                00010000D     23
     508                       1       1                               0D     24
     508      13                                                00010000D     25
     508                       1       1                               0D     26
     508      14                                                00010000D     27
     508                       1       1                               0D     28
     508      15                                                00010000D     29
     508                       1       1                               0D     30
     508      16                                                00010000D     31
     508                       1       1                               0D     32
     508      17                                                00010000D     33
     508                       1       1                               0D     34
     508      18                                                00010000D     35
     508                       1       1                               0D     36
     126      19                                                00010000D     37
     126       0               4       0                               0D     38
     126      23                                                00010000D     39
     126       0               4       0                               0D     40
     126      27                                                00010000D     41
     126       0               4       0                               0D     42
     126      31                                                00010000D     43
     126       0               4       0                               0D     44
     126      35                                                00010000D     45
     126       0              14       0                               0D     46
     126      49                                                00010000D     47
     126       0              13       0                               0D     48
     126      62                                                00010000D     49
     126       0               4       0                               0D     50
     126      66                                                00010000D     51
     126       0               4       0                               0D     52
     126      70                                                00010000D     53
     126       0               4       0                               0D     54
     126      74                                                00010000D     55
     126       0               4       0                               0D     56
     126      78                                                00010000D     57
     126       0               4       0                               0D     58
     126      82                                                00010000D     59
     126       0               3       0                               0D     60
     126      85                                                00010000D     61
     126       0               4       0                               0D     62
     126      89                                                00010000D     63
     126       0               3       0                               0D     64
     126      92                                                00010000D     65
     126       0               4       0                               0D     66
     128      96                                                00010000D     67
     128       0     -87       8       0                               0D     68
     128     104                                                00010000D     69
     128       0     -87      21       0                               0D     70
     128     125                                                00010000D     71
     128       0     -87       6       0                               0D     72
     128     131                                                00010000D     73
     128       0     -87       6       0                               0D     74
     128     137                                                00010000D     75
     128       0     -87       6       0                               0D     76
     128     143                                                00010000D     77
     128       0     -87       6       0                               0D     78
     128     149                                                00010000D     79
     128       0     -87       8       0                               0D     80
     502     157                                                00010000D     81
     502                       9       1                               0D     82
     504     166                                                00010001D     83
     504                       4       1                               0D     84
     406     170                                                00000000D     85
     406                       1      15                               0D     86
     314     171                                                00000200D     87
     314                       1       0                               0D     88
186,3,1,0,0,1,85;                                                      1P      1
514,7,5,1,7,1,9,1,11,1,13,1,15,1,17,1;                                 3P      2
510,67,2,1,19,21;                                                      5P      3
510,69,1,1,23;                                                         7P      4
510,71,1,1,25;                                                         9P      5
510,73,1,1,27;                                                        11P      6
510,75,1,1,29;                                                        13P      7
510,77,1,1,31;                                                        15P      8
510,79,2,1,33,35;                                                     17P      9
508,4,0,83,1,1,0,0,83,2,1,0,0,83,3,1,0,0,83,4,1,0;                    19P     10
508,1,0,83,5,1,0;                                                     21P     11
508,4,0,83,6,0,0,0,83,7,1,0,0,83,5,0,0,0,83,7,0,0;                    23P     12
508,4,0,83,8,0,0,0,83,9,0,0,0,83,10,0,0,0,83,2,0,0;                   25P     13
508,4,0,83,10,1,0,0,83,11,0,0,0,83,12,0,0,0,83,3,0,0;                 27P     14
508,4,0,83,12,1,0,0,83,13,0,0,0,83,14,0,0,0,83,4,0,0;                 29P     15
508,4,0,83,14,1,0,0,83,15,0,0,0,83,8,1,0,0,83,1,0,0;                  31P     16
508,4,0,83,15,1,0,0,83,13,1,0,0,83,11,1,0,0,83,9,1,0;                 33P     17
508,1,0,83,6,1,0;                                                     35P     18
126,1,1,0,0,1,0,-0.0129999999999999,-0.0129999999999999,0.,0.,        37P     19
1.,1.,0.0650000000000261,-0.0650000000000261,-0.25,                   37P     20
-0.0649999999999729,-0.0650000000000173,-0.25,                        37P     21
-0.0129999999999999,0.,0.,0.,0.;                                      37P     22
126,1,1,0,0,1,0,-0.0129999999999999,-0.0129999999999999,0.,0.,        39P     23
1.,1.,-0.0649999999999729,-0.0650000000000173,-0.25,                  39P     24
-0.0649999999999817,0.0649999999999817,-0.25,                         39P     25
-0.0129999999999999,0.,0.,0.,0.;                                      39P     26
126,1,1,0,0,1,0,-0.0129999999999999,-0.0129999999999999,0.,0.,        41P     27
1.,1.,-0.0649999999999817,0.0649999999999817,-0.25,                   41P     28
0.0650000000000173,0.0649999999999817,-0.25,-0.0129999999999999,      41P     29
0.,0.,0.,0.;                                                          41P     30
126,1,1,0,0,1,0,-0.0130000000000008,-0.0130000000000008,0.,0.,        43P     31
1.,1.,0.0650000000000173,0.0649999999999817,-0.25,                    43P     32
0.0650000000000261,-0.0650000000000261,-0.25,                         43P     33
-0.0130000000000008,0.,0.,0.,0.;                                      43P     34
126,8,2,0,1,0,0,-3.14159265358979,-3.14159265358979,                  45P     35
-3.14159265358979,-1.5707963267949,-1.5707963267949,0.,0.,            45P     36
1.5707963267949,1.5707963267949,3.14159265358979,                     45P     37
3.14159265358979,3.14159265358979,1.,0.707106781186547,1.,            45P     38
0.707106781186548,1.,0.707106781186548,1.,0.707106781186547,1.,       45P     39
0.0600000000000023,7.3478807948844D-18,-0.25,0.0600000000000023,      45P     40
0.0600000000000023,-0.25,-3.6739403974422D-18,                        45P     41
0.0600000000000023,-0.25,-0.0600000000000023,0.0600000000000023,      45P     42
-0.25,-0.0600000000000023,0.,-0.25,-0.0600000000000023,               45P     43
-0.0600000000000023,-0.25,-3.6739403974422D-18,                       45P     44
-0.0600000000000023,-0.25,0.0600000000000023,                         45P     45
-0.0600000000000023,-0.25,0.0600000000000023,                         45P     46
-7.3478807948844D-18,-0.25,-3.14159265358979,3.14159265358979,        45P     47
0.,0.,0.;                                                             45P     48
126,8,2,0,1,0,0,-3.14159265358979,-3.14159265358979,                  47P     49
-3.14159265358979,-1.5707963267949,-1.5707963267949,0.,0.,            47P     50
1.5707963267949,1.5707963267949,3.14159265358979,                     47P     51
3.14159265358979,3.14159265358979,1.,0.707106781186547,1.,            47P     52
0.707106781186548,1.,0.707106781186548,1.,0.707106781186547,1.,       47P     53
0.0600000000000023,-7.3478807948844D-18,0.25,0.0600000000000023,      47P     54
-0.0600000000000023,0.25,-3.6739403974422D-18,                        47P     55
-0.0600000000000023,0.25,-0.0600000000000023,                         47P     56
-0.0600000000000023,0.25,-0.0600000000000023,0.,0.25,                 47P     57
-0.0600000000000023,0.0600000000000023,0.25,                          47P     58
-3.6739403974422D-18,0.0600000000000023,0.25,0.0600000000000023,      47P     59
0.0600000000000023,0.25,0.0600000000000023,7.3478807948844D-18,       47P     60
0.25,-3.14159265358979,3.14159265358979,0.,0.,0.;                     47P     61
126,1,1,0,0,1,0,-4.16666666666651,-4.16666666666651,                  49P     62
4.16666666666651,4.16666666666651,1.,1.,0.0600000000000023,0.,        49P     63
0.25,0.0600000000000023,0.,-0.25,-4.16666666666651,                   49P     64
4.16666666666651,0.,0.,0.;                                            49P     65
126,1,1,0,0,1,0,-0.025,-0.025,0.025,0.025,1.,1.,                      51P     66
-0.0649999999999729,-0.0650000000000173,0.25,                         51P     67
-0.0649999999999729,-0.0650000000000173,-0.25,-0.025,0.025,0.,        51P     68
0.,0.;                                                                51P     69
126,1,1,0,0,1,0,0.,0.,0.0129999999999999,0.0129999999999999,1.,       53P     70
1.,-0.0649999999999817,0.0649999999999817,0.25,                       53P     71
-0.0649999999999729,-0.0650000000000173,0.25,0.,                      53P     72
0.0129999999999999,0.,0.,0.;                                          53P     73
126,1,1,0,0,1,0,-0.025,-0.025,0.025,0.025,1.,1.,                      55P     74
-0.0649999999999817,0.0649999999999817,-0.25,                         55P     75
-0.0649999999999817,0.0649999999999817,0.25,-0.025,0.025,0.,0.,       55P     76
0.;                                                                   55P     77
126,1,1,0,0,1,0,0.,0.,0.0129999999999999,0.0129999999999999,1.,       57P     78
1.,0.0650000000000173,0.0649999999999817,0.25,                        57P     79
-0.0649999999999817,0.0649999999999817,0.25,0.,                       57P     80
0.0129999999999999,0.,0.,0.;                                          57P     81
126,1,1,0,0,1,0,-0.025,-0.025,0.025,0.025,1.,1.,                      59P     82
0.0650000000000173,0.0649999999999817,-0.25,0.0650000000000173,       59P     83
0.0649999999999817,0.25,-0.025,0.025,0.,0.,0.;                        59P     84
126,1,1,0,0,1,0,0.,0.,0.0130000000000008,0.0130000000000008,1.,       61P     85
1.,0.0650000000000261,-0.0650000000000261,0.25,                       61P     86
0.0650000000000173,0.0649999999999817,0.25,0.,                        61P     87
0.0130000000000008,0.,0.,0.;                                          61P     88
126,1,1,0,0,1,0,-0.025,-0.025,0.025,0.025,1.,1.,                      63P     89
0.0650000000000261,-0.0650000000000261,-0.25,0.0650000000000261,      63P     90
-0.0650000000000261,0.25,-0.025,0.025,0.,0.,0.;                       63P     91
126,1,1,0,0,1,0,0.,0.,0.0129999999999999,0.0129999999999999,1.,       65P     92
1.,-0.0649999999999729,-0.0650000000000173,0.25,                      65P     93
0.0650000000000261,-0.0650000000000261,0.25,0.,                       65P     94
0.0129999999999999,0.,0.,0.;                                          65P     95
128,1,1,1,1,0,0,1,0,0,-0.00750000000000039,-0.00750000000000039,      67P     96
0.00750000000000039,0.00750000000000039,-0.00750000000000039,         67P     97
-0.00750000000000039,0.00750000000000039,0.00750000000000039,1.,      67P     98
1.,1.,1.,0.0750000000000261,-0.0750000000000261,-0.25,                67P     99
-0.0749999999999817,-0.0750000000000261,-0.25,                        67P    100
0.0750000000000261,0.0749999999999817,-0.25,-0.0749999999999817,      67P    101
0.0749999999999817,-0.25,-0.00750000000000039,                        67P    102
0.00750000000000039,-0.00750000000000039,0.00750000000000039;         67P    103
128,1,8,1,2,0,1,0,0,1,-4.16666666666651,-4.16666666666651,            69P    104
4.16666666666651,4.16666666666651,-3.14159265358979,                  69P    105
-3.14159265358979,-3.14159265358979,-1.5707963267949,                 69P    106
-1.5707963267949,0.,0.,1.5707963267949,1.5707963267949,               69P    107
3.14159265358979,3.14159265358979,3.14159265358979,1.,1.,             69P    108
0.707106781186548,0.707106781186548,1.,1.,0.707106781186548,          69P    109
0.707106781186548,1.,1.,0.707106781186548,0.707106781186548,1.,       69P    110
1.,0.707106781186548,0.707106781186548,1.,1.,0.0600000000000023,      69P    111
0.,-0.25,0.0600000000000023,0.,0.25,0.0600000000000023,               69P    112
0.0600000000000023,-0.25,0.0600000000000023,0.0600000000000023,       69P    113
0.25,0.,0.0600000000000023,-0.25,0.,0.0600000000000023,0.25,          69P    114
-0.0600000000000023,0.0600000000000023,-0.25,                         69P    115
-0.0600000000000023,0.0600000000000023,0.25,-0.0600000000000023,      69P    116
0.,-0.25,-0.0600000000000023,0.,0.25,-0.0600000000000023,             69P    117
-0.0600000000000023,-0.25,-0.0600000000000023,                        69P    118
-0.0600000000000023,0.25,0.,-0.0600000000000023,-0.25,0.,             69P    119
-0.0600000000000023,0.25,0.0600000000000023,-0.0600000000000023,      69P    120
-0.25,0.0600000000000023,-0.0600000000000023,0.25,                    69P    121
0.0600000000000023,0.,-0.25,0.0600000000000023,0.,0.25,               69P    122
-4.16666666666651,4.16666666666651,-3.14159265358979,                 69P    123
3.14159265358979;                                                     69P    124
128,1,1,1,1,0,0,1,0,0,-0.001,-0.001,0.0139999999999999,               71P    125
0.0139999999999999,-0.026,-0.026,0.026,0.026,1.,1.,1.,1.,             71P    126
-0.0649999999999824,0.0749999999999817,-0.26,                         71P    127
-0.0649999999999722,-0.0750000000000173,-0.26,                        71P    128
-0.0649999999999824,0.0749999999999817,0.26,-0.0649999999999722,      71P    129
-0.0750000000000173,0.26,-0.001,0.0139999999999999,-0.026,0.026;      71P    130
128,1,1,1,1,0,0,1,0,0,-0.001,-0.001,0.0139999999999999,               73P    131
0.0139999999999999,-0.026,-0.026,0.026,0.026,1.,1.,1.,1.,             73P    132
0.0750000000000173,0.0649999999999817,-0.26,-0.0749999999999817,      73P    133
0.0649999999999817,-0.26,0.0750000000000173,0.0649999999999817,       73P    134
0.26,-0.0749999999999817,0.0649999999999817,0.26,-0.001,              73P    135
0.0139999999999999,-0.026,0.026;                                      73P    136
128,1,1,1,1,0,0,1,0,0,-0.001,-0.001,0.0140000000000008,               75P    137
0.0140000000000008,-0.026,-0.026,0.026,0.026,1.,1.,1.,1.,             75P    138
0.0650000000000268,-0.0750000000000261,-0.26,0.0650000000000166,      75P    139
0.0749999999999817,-0.26,0.0650000000000268,-0.0750000000000261,      75P    140
0.26,0.0650000000000166,0.0749999999999817,0.26,-0.001,               75P    141
0.0140000000000008,-0.026,0.026;                                      75P    142
128,1,1,1,1,0,0,1,0,0,-0.001,-0.001,0.0139999999999999,               77P    143
0.0139999999999999,-0.026,-0.026,0.026,0.026,1.,1.,1.,1.,             77P    144
-0.0749999999999729,-0.0650000000000166,-0.26,                        77P    145
0.0750000000000262,-0.0650000000000268,-0.26,                         77P    146
-0.0749999999999729,-0.0650000000000166,0.26,0.0750000000000262,      77P    147
-0.0650000000000268,0.26,-0.001,0.0139999999999999,-0.026,0.026;      77P    148
128,1,1,1,1,0,0,1,0,0,-0.00750000000000039,-0.00750000000000039,      79P    149
0.00750000000000039,0.00750000000000039,-0.00750000000000039,         79P    150
-0.00750000000000039,0.00750000000000039,0.00750000000000039,1.,      79P    151
1.,1.,1.,-0.0749999999999817,-0.0750000000000261,0.25,                79P    152
0.0750000000000261,-0.0750000000000261,0.25,-0.0749999999999817,      79P    153
0.0749999999999817,0.25,0.0750000000000261,0.0749999999999817,        79P    154
0.25,-0.00750000000000039,0.00750000000000039,                        79P    155
-0.00750000000000039,0.00750000000000039;                             79P    156
502,10,0.0650000000000261,-0.0650000000000261,-0.25,                  81P    157
-0.0649999999999729,-0.0650000000000173,-0.25,                        81P    158
-0.0649999999999817,0.0649999999999817,-0.25,0.0650000000000173,      81P    159
0.0649999999999817,-0.25,0.0600000000000023,                          81P    160
8.67361737988404D-18,-0.25,0.0600000000000023,                        81P    161
8.67361737988404D-18,0.25,-0.0649999999999729,                        81P    162
-0.0650000000000173,0.25,-0.0649999999999817,0.0649999999999817,      81P    163
0.25,0.0650000000000173,0.0649999999999817,0.25,                      81P    164
0.0650000000000261,-0.0650000000000261,0.25;                          81P    165
504,15,37,81,1,81,2,39,81,2,81,3,41,81,3,81,4,43,81,4,81,1,45,        83P    166
81,5,81,5,47,81,6,81,6,49,81,6,81,5,51,81,7,81,2,53,81,8,81,7,        83P    167
55,81,3,81,8,57,81,9,81,8,59,81,4,81,9,61,81,10,81,9,63,81,1,81,      83P    168
10,65,81,7,81,10;                                                     83P    169
406,1,6HSolid1;                                                       85P    170
314,74.9019607843137,74.9019607843137,74.9019607843137,;              87P    171
S      1G      3D     88P    171                                        T      1
