DBRep_DrawableShape

CASCADE Topology V1, (c) Matra-Datavision
Locations 0
Curve2ds 30
1 0.0064999999999995105 -0.0064999999999995088 1 6.7787655830478827e-14 
1 -1.0408340855860843e-17 -0.024999999999999998 -1 0 
1 0.00650000000000039 0.0065000000000003917 6.7654215563096007e-14 1 
1 -3.4694469519536142e-18 -0.024999999999999998 -1 0 
1 -0.0064999999999995105 0.00650000000000039 -1 0 
1 -3.4694469519536142e-18 -0.024999999999999998 -1 0 
1 -0.00650000000000039 -0.0065000000000004108 -6.7787655830474246e-14 -1 
1 -1.7347234759768071e-18 -0.024999999999999998 -1 0 
7 0 0  3 25 23  -0.0059999999999980095 2.2212049907710529e-15  -0.0060095694254540186 0.00051095409391248606  -0.005861777759774498 0.0016017086732368808  -0.0051657353269950546 0.0032278988968920848  -0.003968482412832753 0.0046221252735453265  -0.0024296860393948692 0.0055817604379226034  -0.00076820870488793712 0.0060211285603698145  0.00076822546395628126 0.0060210682745628864  0.0024296022440801236 0.0055819412953433435  0.0039688008350502943 0.0046214621296691702  0.0051645454334664472 0.00323037061497583  0.0058662189116981053 0.0015924849447779455  0.0060668905441546225 2.2198824420646888e-15  0.0058662189116981062 -0.0015924849447735072  0.0051645454334664446 -0.0032303706149713904  0.0039688008350502943 -0.0046214621296647293  0.0024296022440801228 -0.0055819412953389026  0.00076822546395627952 -0.0060210682745584481  -0.00076820870488794005 -0.0060211285603653745  -0.0024296860393948697 -0.005581760437918159  -0.0039684824128327564 -0.004622125273540883  -0.0051657353269950555 -0.0032278988968876448  -0.0058617777597744988 -0.0016017086732324388  -0.0060095694254540186 -0.00051095409390804506  -0.0059999999999980095 2.2197142127838854e-15 
 -3.14159265358979 4 -2.8559933214452635 1 -2.5703939893007375 1 -2.284794657156211 1 -1.9991953250116845 1 -1.713595992867158 1 -1.4279966607226318 1 -1.1423973285781055 1 -0.85679799643357901 1 -0.57119866428905253 1 -0.28559933214452604 1 0 1 0.28559933214452649 1 0.57119866428905297 1 0.85679799643357901 1 1.1423973285781055 1 1.427996660722632 1 1.7135959928671585 1 1.999195325011685 1 2.2847946571562114 1 2.5703939893007379 1 2.8559933214452635 1 3.14159265358979 4
1 -4.1666666666665098 -4.5297099404706387e-14 -1.4135798584282312e-16 1 
1 4.1666666666665098 -4.5297099404706387e-14 -1.4135798584282312e-16 -1 
7 0 0  3 25 23  0.0059999999999980113 2.2197142127838854e-15  0.0060095694254540203 -0.00051095409390804539  0.0058617777597745006 -0.0016017086732324395  0.0051657353269950546 -0.0032278988968876435  0.0039684824128327547 -0.0046221252735408856  0.0024296860393948697 -0.0055817604379181608  0.00076820870488793886 -0.0060211285603653728  -0.00076822546395628017 -0.0060210682745584472  -0.0024296022440801215 -0.0055819412953389035  -0.0039688008350502917 -0.0046214621296647275  -0.0051645454334664463 -0.00323037061497139  -0.0058662189116981027 -0.0015924849447735039  -0.0060668905441546225 2.2208411286833026e-15  -0.0058662189116981045 0.0015924849447779481  -0.0051645454334664428 0.0032303706149758309  -0.0039688008350502926 0.004621462129669171  -0.002429602244080121 0.0055819412953433453  -0.00076822546395627822 0.0060210682745628855  0.00076820870488794146 0.0060211285603698162  0.0024296860393948718 0.0055817604379225973  0.0039684824128327573 0.0046221252735453265  0.0051657353269950581 0.0032278988968920839  0.005861777759774498 0.0016017086732368797  0.0060095694254540203 0.00051095409391248606  0.0059999999999980113 2.2212049907710529e-15 
 -3.14159265358979 4 -2.8559933214452635 1 -2.5703939893007375 1 -2.284794657156211 1 -1.9991953250116845 1 -1.713595992867158 1 -1.4279966607226318 1 -1.1423973285781055 1 -0.85679799643357901 1 -0.57119866428905253 1 -0.28559933214452604 1 0 1 0.28559933214452649 1 0.57119866428905297 1 0.85679799643357901 1 1.1423973285781055 1 1.427996660722632 1 1.7135959928671585 1 1.999195325011685 1 2.2847946571562114 1 2.5703939893007379 1 2.8559933214452635 1 3.14159265358979 4
1 0 3.1415926535897443 -1 0 
1 0 -3.1415926535898353 -1 0 
1 0.012999999999999897 -3.4694469519536142e-18 0 -1 
1 -7.8604657505199071e-19 -3.4694469519536142e-18 0 -1 
1 2.7105054312137611e-19 0.024999999999999998 1 0 
1 -0.00650000000000039 0.00650000000000039 6.778765583047884e-14 -1 
1 9.6493993351214617e-19 3.4694469519536142e-18 2.7755575615630799e-17 1 
1 0.012999999999999897 3.4694469519536142e-18 0 1 
1 6.7762635780344027e-19 0.024999999999999998 1 0 
1 0.0064999999999995105 0.00650000000000039 -1 0 
1 6.7762635780344027e-19 3.4694469519536142e-18 0 1 
1 0.013000000000000799 3.4694469519536142e-18 0 1 
1 1.1655173354219173e-18 0.024999999999999998 1 0 
1 0.0065000000000003917 -0.00650000000000039 -6.7787655830474246e-14 1 
1 1.1655173354220116e-18 3.4694469519536142e-18 3.7748226909989823e-30 1 
1 0.01299999999999989 3.4694469519536142e-18 0 1 
1 -7.8604657505199071e-19 0.024999999999999998 1 0 
1 -0.0064999999999995088 -0.0064999999999995088 1 -6.7787655830478827e-14 
Curves 15
7 0 0  1 2 2  0.065000000000026106 -0.065000000000026106 -0.25  -0.064999999999972899 -0.065000000000017294 -0.25 
 -0.012999999999999901 2 0 2
7 0 0  1 2 2  -0.064999999999972899 -0.065000000000017294 -0.25  -0.064999999999981697 0.064999999999981697 -0.25 
 -0.012999999999999901 2 0 2
7 0 0  1 2 2  -0.064999999999981697 0.064999999999981697 -0.25  0.065000000000017294 0.064999999999981697 -0.25 
 -0.012999999999999901 2 0 2
7 0 0  1 2 2  0.065000000000017294 0.064999999999981697 -0.25  0.065000000000026106 -0.065000000000026106 -0.25 
 -0.013000000000000801 2 0 2
7 1 0  2 9 5  0.060000000000002301 7.3478807948844003e-18 -0.25  1 0.060000000000002301 0.060000000000002301 -0.25  0.70710678118654702 -3.6739403974422002e-18 0.060000000000002301 -0.25  1 -0.060000000000002301 0.060000000000002301 -0.25  0.70710678118654802 -0.060000000000002301 0 -0.25  1 -0.060000000000002301 -0.060000000000002301 -0.25  0.70710678118654802 -3.6739403974422002e-18 -0.060000000000002301 -0.25  1 0.060000000000002301 -0.060000000000002301 -0.25  0.70710678118654702 0.060000000000002301 -7.3478807948844003e-18 -0.25  1
 -3.14159265358979 3 -1.5707963267949001 2 0 2 1.5707963267949001 2 3.14159265358979 3
7 1 0  2 9 5  0.060000000000002301 -7.3478807948844003e-18 0.25  1 0.060000000000002301 -0.060000000000002301 0.25  0.70710678118654702 -3.6739403974422002e-18 -0.060000000000002301 0.25  1 -0.060000000000002301 -0.060000000000002301 0.25  0.70710678118654802 -0.060000000000002301 0 0.25  1 -0.060000000000002301 0.060000000000002301 0.25  0.70710678118654802 -3.6739403974422002e-18 0.060000000000002301 0.25  1 0.060000000000002301 0.060000000000002301 0.25  0.70710678118654702 0.060000000000002301 7.3478807948844003e-18 0.25  1
 -3.14159265358979 3 -1.5707963267949001 2 0 2 1.5707963267949001 2 3.14159265358979 3
7 0 0  1 2 2  0.060000000000002301 0 0.25  0.060000000000002301 0 -0.25 
 -4.1666666666665098 2 4.1666666666665098 2
7 0 0  1 2 2  -0.064999999999972899 -0.065000000000017294 0.25  -0.064999999999972899 -0.065000000000017294 -0.25 
 -0.025000000000000001 2 0.025000000000000001 2
7 0 0  1 2 2  -0.064999999999981697 0.064999999999981697 0.25  -0.064999999999972899 -0.065000000000017294 0.25 
 0 2 0.012999999999999901 2
7 0 0  1 2 2  -0.064999999999981697 0.064999999999981697 -0.25  -0.064999999999981697 0.064999999999981697 0.25 
 -0.025000000000000001 2 0.025000000000000001 2
7 0 0  1 2 2  0.065000000000017294 0.064999999999981697 0.25  -0.064999999999981697 0.064999999999981697 0.25 
 0 2 0.012999999999999901 2
7 0 0  1 2 2  0.065000000000017294 0.064999999999981697 -0.25  0.065000000000017294 0.064999999999981697 0.25 
 -0.025000000000000001 2 0.025000000000000001 2
7 0 0  1 2 2  0.065000000000026106 -0.065000000000026106 0.25  0.065000000000017294 0.064999999999981697 0.25 
 0 2 0.013000000000000801 2
7 0 0  1 2 2  0.065000000000026106 -0.065000000000026106 -0.25  0.065000000000026106 -0.065000000000026106 0.25 
 -0.025000000000000001 2 0.025000000000000001 2
7 0 0  1 2 2  -0.064999999999972899 -0.065000000000017294 0.25  0.065000000000026106 -0.065000000000026106 0.25 
 0 2 0.012999999999999901 2
Polygon3D 0
PolygonOnTriangulations 0
Surfaces 7
9 0 0 0 0 1 1 2 2 2 2 0.075000000000026101 -0.075000000000026101 -0.25  0.075000000000026101 0.074999999999981706 -0.25  
-0.074999999999981706 -0.075000000000026101 -0.25  -0.074999999999981706 0.074999999999981706 -0.25  

-0.00750000000000039 2
0.00750000000000039 2

-0.00750000000000039 2
0.00750000000000039 2

9 0 0 0 0 1 1 2 2 2 2 -0.074999999999972894 -0.0650000000000166 -0.26000000000000001  -0.074999999999972894 -0.0650000000000166 0.26000000000000001  
0.075000000000026198 -0.0650000000000268 -0.26000000000000001  0.075000000000026198 -0.0650000000000268 0.26000000000000001  

-0.001 2
0.0139999999999999 2

-0.025999999999999999 2
0.025999999999999999 2

9 0 0 0 0 1 1 2 2 2 2 -0.064999999999982405 0.074999999999981706 -0.26000000000000001  -0.064999999999982405 0.074999999999981706 0.26000000000000001  
-0.064999999999972205 -0.075000000000017303 -0.26000000000000001  -0.064999999999972205 -0.075000000000017303 0.26000000000000001  

-0.001 2
0.0139999999999999 2

-0.025999999999999999 2
0.025999999999999999 2

9 0 0 0 0 1 1 2 2 2 2 0.075000000000017303 0.064999999999981697 -0.26000000000000001  0.075000000000017303 0.064999999999981697 0.26000000000000001  
-0.074999999999981706 0.064999999999981697 -0.26000000000000001  -0.074999999999981706 0.064999999999981697 0.26000000000000001  

-0.001 2
0.0139999999999999 2

-0.025999999999999999 2
0.025999999999999999 2

9 0 0 0 0 1 1 2 2 2 2 0.0650000000000268 -0.075000000000026101 -0.26000000000000001  0.0650000000000268 -0.075000000000026101 0.26000000000000001  
0.0650000000000166 0.074999999999981706 -0.26000000000000001  0.0650000000000166 0.074999999999981706 0.26000000000000001  

-0.001 2
0.0140000000000008 2

-0.025999999999999999 2
0.025999999999999999 2

9 1 0 0 1 1 2 2 8 2 5 0.060000000000002301 0 -0.25  1 0.060000000000002301 0.060000000000002301 -0.25  0.70710678118654802 0 0.060000000000002301 -0.25  1 -0.060000000000002301 0.060000000000002301 -0.25  0.70710678118654802 -0.060000000000002301 0 -0.25  1 -0.060000000000002301 -0.060000000000002301 -0.25  0.70710678118654802 0 -0.060000000000002301 -0.25  1 0.060000000000002301 -0.060000000000002301 -0.25  0.70710678118654802 
0.060000000000002301 0 0.25  1 0.060000000000002301 0.060000000000002301 0.25  0.70710678118654802 0 0.060000000000002301 0.25  1 -0.060000000000002301 0.060000000000002301 0.25  0.70710678118654802 -0.060000000000002301 0 0.25  1 -0.060000000000002301 -0.060000000000002301 0.25  0.70710678118654802 0 -0.060000000000002301 0.25  1 0.060000000000002301 -0.060000000000002301 0.25  0.70710678118654802 

-4.1666666666665098 2
4.1666666666665098 2

-3.14159265358979 2
-1.5707963267949001 2
0 2
1.5707963267949001 2
3.14159265358979 2

9 0 0 0 0 1 1 2 2 2 2 -0.074999999999981706 -0.075000000000026101 0.25  -0.074999999999981706 0.074999999999981706 0.25  
0.075000000000026101 -0.075000000000026101 0.25  0.075000000000026101 0.074999999999981706 0.25  

-0.00750000000000039 2
0.00750000000000039 2

-0.00750000000000039 2
0.00750000000000039 2

Triangulations 0

TShapes 44
Ve
1e-07
0.0650000000000261 -0.0650000000000261 -0.25
0 0

0101101
*
Ve
1e-07
-0.0649999999999729 -0.0650000000000173 -0.25
0 0

0101101
*
Ed
 2.22044604925031e-16 1 1 0
1  1 0 -0.0129999999999999 0
2  1 1 0 -0.0129999999999999 0
2  2 2 0 -0.0129999999999999 0
4 C0 1 0 2 0
0

0101000
+44 0 -43 0 *
Ve
1e-07
-0.0649999999999817 0.0649999999999817 -0.25
0 0

0101101
*
Ed
 2.22044604925031e-16 1 1 0
1  2 0 -0.0129999999999999 0
2  3 1 0 -0.0129999999999999 0
2  4 3 0 -0.0129999999999999 0
4 C0 1 0 3 0
0

0101000
+43 0 -41 0 *
Ve
1e-07
0.0650000000000173 0.0649999999999817 -0.25
0 0

0101101
*
Ed
 2.22044604925031e-16 1 1 0
1  3 0 -0.0129999999999999 0
2  5 1 0 -0.0129999999999999 0
2  6 4 0 -0.0129999999999999 0
4 C0 1 0 4 0
0

0101000
+41 0 -39 0 *
Ed
 2.22044604925031e-16 1 1 0
1  4 0 -0.0130000000000008 0
2  7 1 0 -0.0130000000000008 0
2  8 5 0 -0.0130000000000008 0
4 C0 1 0 5 0
0

0101000
+39 0 -44 0 *
Wi

0101100
+42 0 +40 0 +38 0 +37 0 *
Ve
1e-07
0.0600000000000023 8.67361737988404e-18 -0.25
0 0

0101101
*
Ed
 2.22044604925031e-16 1 1 0
1  5 0 -3.14159265358979 3.14159265358979
2  9 1 0 -3.14159265358979 3.14159265358979
2  10 6 0 -3.14159265358979 3.14159265358979
4 C0 1 0 6 0
0

0101000
+35 0 -35 0 *
Wi

0101100
+34 0 *
Fa
0  1e-07 1 0

0111000
+36 0 +33 0 *
Ve
1e-07
0.0600000000000023 8.67361737988404e-18 0.25
0 0

0101101
*
Ed
 2.22044604925031e-16 1 1 0
1  6 0 -3.14159265358979 3.14159265358979
2  11 6 0 -3.14159265358979 3.14159265358979
2  12 7 0 -3.14159265358979 3.14159265358979
4 C0 6 0 7 0
0

0101000
+31 0 -31 0 *
Ed
 2.22044604925031e-16 1 1 0
1  7 0 -4.16666666666651 4.16666666666651
3  13 14G2 6 0 -4.16666666666651 4.16666666666651
0

0101000
+31 0 -35 0 *
Wi

0101100
-30 0 +29 0 -34 0 -29 0 *
Fa
0  1e-07 6 0

0111000
+28 0 *
Ve
1e-07
-0.0649999999999729 -0.0650000000000173 0.25
0 0

0101101
*
Ed
 2.22044604925031e-16 1 1 0
1  8 0 -0.025 0.025
2  15 3 0 -0.025 0.025
2  16 2 0 -0.025 0.025
4 C0 3 0 2 0
0

0101000
+26 0 -43 0 *
Ve
1e-07
-0.0649999999999817 0.0649999999999817 0.25
0 0

0101101
*
Ed
 2.22044604925031e-16 1 1 0
1  9 0 0 0.0129999999999999
2  17 3 0 0 0.0129999999999999
2  18 7 0 0 0.0129999999999999
4 C0 3 0 7 0
0

0101000
+24 0 -26 0 *
Ed
 2.22044604925031e-16 1 1 0
1  10 0 -0.025 0.025
2  19 3 0 -0.025 0.025
2  20 4 0 -0.025 0.025
4 C0 3 0 4 0
0

0101000
+41 0 -24 0 *
Wi

0101100
-25 0 -23 0 -22 0 -40 0 *
Fa
0  1e-07 3 0

0111000
+21 0 *
Ve
1e-07
0.0650000000000173 0.0649999999999817 0.25
0 0

0101101
*
Ed
 2.22044604925031e-16 1 1 0
1  11 0 0 0.0129999999999999
2  21 4 0 0 0.0129999999999999
2  22 7 0 0 0.0129999999999999
4 C0 4 0 7 0
0

0101000
+19 0 -24 0 *
Ed
 2.22044604925031e-16 1 1 0
1  12 0 -0.025 0.025
2  23 4 0 -0.025 0.025
2  24 5 0 -0.025 0.025
4 C0 4 0 5 0
0

0101000
+39 0 -19 0 *
Wi

0101100
+22 0 -18 0 -17 0 -38 0 *
Fa
0  1e-07 4 0

0111000
+16 0 *
Ve
1e-07
0.0650000000000261 -0.0650000000000261 0.25
0 0

0101101
*
Ed
 2.22044604925031e-16 1 1 0
1  13 0 0 0.0130000000000008
2  25 5 0 0 0.0130000000000008
2  26 7 0 0 0.0130000000000008
4 C0 5 0 7 0
0

0101000
+14 0 -19 0 *
Ed
 2.22044604925031e-16 1 1 0
1  14 0 -0.025 0.025
2  27 5 0 -0.025 0.025
2  28 2 0 -0.025 0.025
4 C0 5 0 2 0
0

0101000
+44 0 -14 0 *
Wi

0101100
+17 0 -13 0 -12 0 -37 0 *
Fa
0  1e-07 5 0

0111000
+11 0 *
Ed
 2.22044604925031e-16 1 1 0
1  15 0 0 0.0129999999999999
2  29 2 0 0 0.0129999999999999
2  30 7 0 0 0.0129999999999999
4 C0 2 0 7 0
0

0101000
+26 0 -14 0 *
Wi

0101100
+12 0 -9 0 +25 0 -42 0 *
Fa
0  1e-07 2 0

0111000
+8 0 *
Wi

0101100
+9 0 +13 0 +18 0 +23 0 *
Wi

0101100
+30 0 *
Fa
0  1e-07 7 0

0111000
+6 0 +5 0 *
Sh

0101100
+32 0 +27 0 +20 0 +15 0 +10 0 +7 0 +4 0 *
So

0100000
+3 0 *
Co

1100000
+2 0 *

+1 0 